<mxfile host="app.diagrams.net" agent="Mozilla/5.0 (Windows NT 10.0; Win64; x64) AppleWebKit/537.36 (KHTML, like Gecko) Chrome/133.0.0.0 Safari/537.36" version="26.0.11">
  <diagram name="Page-1" id="QrqzdbGb7QC4Ya3qQ13d">
    <mxGraphModel grid="1" page="1" gridSize="10" guides="1" tooltips="1" connect="1" arrows="1" fold="1" pageScale="1" pageWidth="827" pageHeight="1169" math="0" shadow="0">
      <root>
        <mxCell id="0" />
        <mxCell id="1" parent="0" />
        <mxCell id="xf_A7BMa9KOoynD-nZPb-28" style="edgeStyle=orthogonalEdgeStyle;rounded=0;orthogonalLoop=1;jettySize=auto;html=1;entryX=0;entryY=0.5;entryDx=0;entryDy=0;" edge="1" parent="1" source="xf_A7BMa9KOoynD-nZPb-1" target="xf_A7BMa9KOoynD-nZPb-7">
          <mxGeometry relative="1" as="geometry" />
        </mxCell>
        <mxCell id="xf_A7BMa9KOoynD-nZPb-1" value="Utilisateur" style="shape=umlActor;verticalLabelPosition=bottom;verticalAlign=top;html=1;outlineConnect=0;" vertex="1" parent="1">
          <mxGeometry x="80" y="140" width="30" height="60" as="geometry" />
        </mxCell>
        <mxCell id="xf_A7BMa9KOoynD-nZPb-19" style="edgeStyle=orthogonalEdgeStyle;rounded=0;orthogonalLoop=1;jettySize=auto;html=1;entryX=0;entryY=0.5;entryDx=0;entryDy=0;" edge="1" parent="1" source="xf_A7BMa9KOoynD-nZPb-2" target="xf_A7BMa9KOoynD-nZPb-12">
          <mxGeometry relative="1" as="geometry" />
        </mxCell>
        <mxCell id="xf_A7BMa9KOoynD-nZPb-20" style="edgeStyle=orthogonalEdgeStyle;rounded=0;orthogonalLoop=1;jettySize=auto;html=1;entryX=0;entryY=0.5;entryDx=0;entryDy=0;" edge="1" parent="1" source="xf_A7BMa9KOoynD-nZPb-2" target="xf_A7BMa9KOoynD-nZPb-13">
          <mxGeometry relative="1" as="geometry" />
        </mxCell>
        <mxCell id="xf_A7BMa9KOoynD-nZPb-27" style="edgeStyle=orthogonalEdgeStyle;rounded=0;orthogonalLoop=1;jettySize=auto;html=1;entryX=0;entryY=0.5;entryDx=0;entryDy=0;" edge="1" parent="1" source="xf_A7BMa9KOoynD-nZPb-2" target="xf_A7BMa9KOoynD-nZPb-14">
          <mxGeometry relative="1" as="geometry" />
        </mxCell>
        <mxCell id="xf_A7BMa9KOoynD-nZPb-29" style="edgeStyle=orthogonalEdgeStyle;rounded=0;orthogonalLoop=1;jettySize=auto;html=1;entryX=0;entryY=0.5;entryDx=0;entryDy=0;" edge="1" parent="1" source="xf_A7BMa9KOoynD-nZPb-2" target="xf_A7BMa9KOoynD-nZPb-11">
          <mxGeometry relative="1" as="geometry" />
        </mxCell>
        <mxCell id="xf_A7BMa9KOoynD-nZPb-2" value="Systeme" style="shape=umlActor;verticalLabelPosition=bottom;verticalAlign=top;html=1;outlineConnect=0;" vertex="1" parent="1">
          <mxGeometry x="80" y="525" width="30" height="60" as="geometry" />
        </mxCell>
        <mxCell id="xf_A7BMa9KOoynD-nZPb-6" value="" style="swimlane;startSize=0;" vertex="1" parent="1">
          <mxGeometry x="160" y="90" width="600" height="830" as="geometry" />
        </mxCell>
        <mxCell id="xf_A7BMa9KOoynD-nZPb-7" value="Choisir la méthode de chargement" style="ellipse;whiteSpace=wrap;html=1;" vertex="1" parent="xf_A7BMa9KOoynD-nZPb-6">
          <mxGeometry x="90" y="40" width="140" height="80" as="geometry" />
        </mxCell>
        <mxCell id="xf_A7BMa9KOoynD-nZPb-22" style="edgeStyle=orthogonalEdgeStyle;rounded=0;orthogonalLoop=1;jettySize=auto;html=1;" edge="1" parent="xf_A7BMa9KOoynD-nZPb-6" source="xf_A7BMa9KOoynD-nZPb-8" target="xf_A7BMa9KOoynD-nZPb-7">
          <mxGeometry relative="1" as="geometry" />
        </mxCell>
        <mxCell id="xf_A7BMa9KOoynD-nZPb-8" value="Via un fichier" style="ellipse;whiteSpace=wrap;html=1;" vertex="1" parent="xf_A7BMa9KOoynD-nZPb-6">
          <mxGeometry x="340" y="10" width="120" height="80" as="geometry" />
        </mxCell>
        <mxCell id="xf_A7BMa9KOoynD-nZPb-23" style="edgeStyle=orthogonalEdgeStyle;rounded=0;orthogonalLoop=1;jettySize=auto;html=1;" edge="1" parent="xf_A7BMa9KOoynD-nZPb-6" source="xf_A7BMa9KOoynD-nZPb-9" target="xf_A7BMa9KOoynD-nZPb-7">
          <mxGeometry relative="1" as="geometry" />
        </mxCell>
        <mxCell id="xf_A7BMa9KOoynD-nZPb-9" value="Via une saisie manuelle" style="ellipse;whiteSpace=wrap;html=1;" vertex="1" parent="xf_A7BMa9KOoynD-nZPb-6">
          <mxGeometry x="340" y="110" width="120" height="80" as="geometry" />
        </mxCell>
        <mxCell id="xf_A7BMa9KOoynD-nZPb-12" value="Vérifier la grille" style="ellipse;whiteSpace=wrap;html=1;" vertex="1" parent="xf_A7BMa9KOoynD-nZPb-6">
          <mxGeometry x="110" y="360" width="120" height="80" as="geometry" />
        </mxCell>
        <mxCell id="xf_A7BMa9KOoynD-nZPb-11" value="Récupérer la grille&lt;span style=&quot;color: rgba(0, 0, 0, 0); font-family: monospace; font-size: 0px; text-align: start; text-wrap-mode: nowrap;&quot;&gt;%3CmxGraphModel%3E%3Croot%3E%3CmxCell%20id%3D%220%22%2F%3E%3CmxCell%20id%3D%221%22%20parent%3D%220%22%2F%3E%3CmxCell%20id%3D%222%22%20value%3D%22Via%20un%20fichier%22%20style%3D%22ellipse%3BwhiteSpace%3Dwrap%3Bhtml%3D1%3B%22%20vertex%3D%221%22%20parent%3D%221%22%3E%3CmxGeometry%20x%3D%22500%22%20y%3D%22100%22%20width%3D%22120%22%20height%3D%2280%22%20as%3D%22geometry%22%2F%3E%3C%2FmxCell%3E%3C%2Froot%3E%3C%2FmxGraphModel%3E&lt;/span&gt;" style="ellipse;whiteSpace=wrap;html=1;" vertex="1" parent="xf_A7BMa9KOoynD-nZPb-6">
          <mxGeometry x="110" y="220" width="120" height="80" as="geometry" />
        </mxCell>
        <mxCell id="xf_A7BMa9KOoynD-nZPb-13" value="Charger la grille dans la mémoire" style="ellipse;whiteSpace=wrap;html=1;" vertex="1" parent="xf_A7BMa9KOoynD-nZPb-6">
          <mxGeometry x="110" y="495" width="120" height="80" as="geometry" />
        </mxCell>
        <mxCell id="xf_A7BMa9KOoynD-nZPb-14" value="Afficher la grille" style="ellipse;whiteSpace=wrap;html=1;" vertex="1" parent="xf_A7BMa9KOoynD-nZPb-6">
          <mxGeometry x="110" y="650" width="120" height="80" as="geometry" />
        </mxCell>
        <mxCell id="xf_A7BMa9KOoynD-nZPb-25" style="edgeStyle=orthogonalEdgeStyle;rounded=0;orthogonalLoop=1;jettySize=auto;html=1;entryX=1;entryY=0.5;entryDx=0;entryDy=0;" edge="1" parent="xf_A7BMa9KOoynD-nZPb-6" source="xf_A7BMa9KOoynD-nZPb-16" target="xf_A7BMa9KOoynD-nZPb-14">
          <mxGeometry relative="1" as="geometry" />
        </mxCell>
        <mxCell id="xf_A7BMa9KOoynD-nZPb-16" value="Mode graphique" style="ellipse;whiteSpace=wrap;html=1;" vertex="1" parent="xf_A7BMa9KOoynD-nZPb-6">
          <mxGeometry x="350" y="720" width="120" height="80" as="geometry" />
        </mxCell>
        <mxCell id="xf_A7BMa9KOoynD-nZPb-24" style="edgeStyle=orthogonalEdgeStyle;rounded=0;orthogonalLoop=1;jettySize=auto;html=1;" edge="1" parent="xf_A7BMa9KOoynD-nZPb-6" source="xf_A7BMa9KOoynD-nZPb-15" target="xf_A7BMa9KOoynD-nZPb-14">
          <mxGeometry relative="1" as="geometry" />
        </mxCell>
        <mxCell id="xf_A7BMa9KOoynD-nZPb-15" value="Mode texte" style="ellipse;whiteSpace=wrap;html=1;" vertex="1" parent="xf_A7BMa9KOoynD-nZPb-6">
          <mxGeometry x="350" y="575" width="120" height="80" as="geometry" />
        </mxCell>
        <mxCell id="xf_A7BMa9KOoynD-nZPb-31" value="Message d&#39;erreur si grille non valide" style="ellipse;whiteSpace=wrap;html=1;" vertex="1" parent="xf_A7BMa9KOoynD-nZPb-6">
          <mxGeometry x="380" y="360" width="120" height="80" as="geometry" />
        </mxCell>
        <mxCell id="xf_A7BMa9KOoynD-nZPb-30" value="&amp;lt;&amp;lt;extend&amp;gt;&amp;gt;" style="endArrow=open;endSize=12;dashed=1;html=1;rounded=0;exitX=0;exitY=0.5;exitDx=0;exitDy=0;entryX=1;entryY=0.5;entryDx=0;entryDy=0;" edge="1" parent="xf_A7BMa9KOoynD-nZPb-6" source="xf_A7BMa9KOoynD-nZPb-31" target="xf_A7BMa9KOoynD-nZPb-12">
          <mxGeometry width="160" relative="1" as="geometry">
            <mxPoint x="110" y="420" as="sourcePoint" />
            <mxPoint x="270" y="420" as="targetPoint" />
          </mxGeometry>
        </mxCell>
      </root>
    </mxGraphModel>
  </diagram>
</mxfile>
